<svg xmlns="http://www.w3.org/2000/svg" xmlns:xlink="http://www.w3.org/1999/xlink" id="Ebene_1" x="0px" y="0px" viewBox="0 0 2000 787.1" style="enable-background:new 0 0 2000 787.1;" xml:space="preserve"><style type="text/css">	.st0{fill:#C8C7C7;}	.st1{fill:#114173;}	.st2{fill:#C7C6C6;}	.st3{fill:#F3CF32;}</style><g>	<g>		<path class="st0" d="M1568.5,729.9c-3.8,4.5-9.1,8-16,10.5c-6.9,2.5-14.5,3.7-22.9,3.7c-8.8,0-16.5-1.9-23.1-5.8   c-6.6-3.8-11.7-9.4-15.3-16.7c-3.6-7.3-5.5-15.9-5.5-25.7V689c0-10.1,1.7-18.9,5.1-26.3c3.4-7.4,8.4-13.1,14.8-17   c6.4-3.9,14-5.9,22.6-5.9c12.1,0,21.5,2.9,28.3,8.6c6.8,5.7,10.8,14.1,12.1,25.1h-20.4c-0.9-5.8-3-10.1-6.2-12.8   c-3.2-2.7-7.6-4-13.1-4c-7.1,0-12.5,2.7-16.2,8c-3.7,5.4-5.6,13.3-5.7,23.9v6.5c0,10.7,2,18.7,6.1,24.1c4,5.4,10,8.2,17.8,8.2   c7.9,0,13.5-1.7,16.8-5v-17.5h-19.1v-15.4h40V729.9z"></path>		<polygon class="st0" points="1612.8,641.1 1638.9,714.8 1664.8,641.1 1692.3,641.1 1692.3,742.7 1671.3,742.7 1671.3,714.9    1673.4,667 1646,742.7 1631.6,742.7 1604.3,667.1 1606.4,714.9 1606.4,742.7 1585.5,742.7 1585.5,641.1   "></polygon>		<path class="st0" d="M1710.6,742.7V641.1h35.6c12.3,0,21.7,2.4,28.1,7.1c6.4,4.7,9.6,11.6,9.6,20.8c0,5-1.3,9.4-3.8,13.2   c-2.5,3.8-6.1,6.6-10.7,8.3c5.2,1.3,9.3,3.9,12.3,7.9c3,3.9,4.5,8.8,4.5,14.5c0,9.8-3.1,17.2-9.4,22.2c-6.2,5-15.1,7.6-26.6,7.7   H1710.6z M1731.5,683.7h15.5c10.6-0.2,15.8-4.4,15.8-12.6c0-4.6-1.3-7.9-4-9.9c-2.7-2-6.9-3-12.7-3h-14.7V683.7z M1731.5,698.5   v27.4h17.9c4.9,0,8.8-1.2,11.5-3.5c2.8-2.4,4.2-5.6,4.2-9.7c0-9.3-4.8-14-14.4-14.2H1731.5z"></path>		<polygon class="st0" points="1884.4,742.7 1863.5,742.7 1863.5,699.2 1822.7,699.2 1822.7,742.7 1801.8,742.7 1801.8,641.1    1822.7,641.1 1822.7,682.3 1863.5,682.3 1863.5,641.1 1884.4,641.1   "></polygon>		<path class="st0" d="M1439.5,639.7h-19.9v65.6l-0.4,0.1l-31.3-65.7h-20v102.9h20V677l0.4-0.1l31.3,65.8h19.9V639.7z M1347.9,681.4   h-34.4v-25.6h40.3v-16h-60.3v102.9h60.4v-16h-40.4v-29.1h34.4V681.4z M1228.3,655.9h13.4c4,0,7.1,1.4,9.2,4.2   c2.1,2.8,3.2,6.5,3.2,11.2c0,4.6-1.1,8.2-3.2,10.7c-2.1,2.5-5.2,3.7-9.3,3.7h-13.3V655.9z M1242.7,701.7c3.9,0,6.9,1.4,9,4.2   c2.1,2.8,3.1,6.8,3.1,12v7c0,3.5,0.2,7,0.6,10.4c0.4,3.4,1.5,5.8,3.1,7.3h20.7v-1.5c-1.6-1.5-2.8-3.8-3.5-7c-0.7-3.2-1-6.3-1-9.1   v-7.3c0-6.2-1.2-11.4-3.5-15.6c-2.3-4.1-6.1-7.1-11.3-8.9c4.6-2.3,8.1-5.4,10.5-9.3c2.4-3.9,3.6-8.5,3.6-13.9   c0-9.5-2.9-16.9-8.6-22.3c-5.7-5.3-13.6-8-23.7-8h-33.4v102.8h19.9v-40.9H1242.7z M1170.4,639.7v70c0,6.6-1.3,11.2-3.8,14.1   c-2.5,2.8-6.2,4.2-11,4.2c-4.7,0-8.3-1.5-10.9-4.4c-2.6-3-3.9-7.6-3.9-13.9v-70h-20v70c0,10.9,3.2,19.4,9.6,25.4   c6.4,6,14.8,9,25.1,9c10.3,0,18.7-3,25.1-8.9c6.4-6,9.6-14.4,9.6-25.4v-70H1170.4z M1108.8,639.7h-65.9v16h22.9v86.8h20v-86.8h23   V639.7z M1006.7,668.2h0.4l9.2,36.4h-18.8L1006.7,668.2z M1026,742.6h20.2l-28.7-102.9h-20.8l-28.8,102.9h20.2l5.5-22h27   L1026,742.6z M865.1,639.7v102.9H885v-29.9l-1.8-39.4l0.4-0.1l19.3,69.4h13.3l19.5-69.9l0.4,0.1l-1.7,40v29.9h19.9V639.7h-26.1   l-18.6,75.5h-0.4L891,639.7H865.1z M800.2,655.9h13.4c4,0,7.1,1.4,9.2,4.2c2.1,2.8,3.2,6.5,3.2,11.2c0,4.6-1.1,8.2-3.2,10.7   c-2.1,2.5-5.2,3.7-9.3,3.7h-13.4V655.9z M814.7,701.7c3.9,0,6.9,1.4,9,4.2c2.1,2.8,3.1,6.8,3.1,12v7c0,3.5,0.2,7,0.6,10.4   c0.4,3.4,1.4,5.8,3.1,7.3h20.6v-1.5c-1.6-1.5-2.8-3.8-3.4-7c-0.6-3.2-1-6.3-1-9.1v-7.3c0-6.2-1.2-11.4-3.5-15.6   c-2.3-4.1-6.1-7.1-11.3-8.9c4.6-2.3,8.1-5.4,10.5-9.3c2.4-3.9,3.6-8.5,3.6-13.9c0-9.5-2.9-16.9-8.6-22.3c-5.7-5.3-13.6-8-23.7-8   h-33.4v102.8h20v-40.9H814.7z M729.3,668.2h0.4l9.2,36.4h-18.8L729.3,668.2z M748.5,742.6h20.2L740,639.7h-20.8l-28.8,102.9h20.2   l5.5-22h27L748.5,742.6z M676.9,681.4h-34.4v-25.6h40.3v-16h-60.3v102.9H683v-16h-40.4v-29.1h34.4V681.4z M602.4,639.7h-19.9   v102.9h19.9V639.7z M516.2,655.9h13.4c4,0,7.1,1.4,9.2,4.2c2.1,2.8,3.2,6.5,3.2,11.2c0,4.6-1.1,8.2-3.2,10.7   c-2.1,2.5-5.2,3.7-9.3,3.7h-13.3V655.9z M530.7,701.7c3.9,0,6.9,1.4,9,4.2c2.1,2.8,3.1,6.8,3.1,12v7c0,3.5,0.2,7,0.6,10.4   c0.4,3.4,1.4,5.8,3.1,7.3h20.7v-1.5c-1.6-1.5-2.8-3.8-3.4-7c-0.7-3.2-1-6.3-1-9.1v-7.3c0-6.2-1.2-11.4-3.5-15.6   c-2.3-4.1-6.1-7.1-11.3-8.9c4.6-2.3,8.1-5.4,10.5-9.3c2.4-3.9,3.6-8.5,3.6-13.9c0-9.5-2.9-16.9-8.6-22.3c-5.7-5.3-13.6-8-23.7-8   h-33.4v102.8h20v-40.9H530.7z M483,639.7h-65.9v16H440v86.8h20v-86.8h23V639.7z M383.6,724.9c-2,2.3-5.2,3.4-9.4,3.4   c-5.4,0-9.4-1.4-12.1-4.2c-2.7-2.8-4-7.4-4-13.7h-19.5l-0.1,0.4c-0.2,10.7,3.2,18.9,10.4,24.6c7.1,5.7,15.6,8.6,25.3,8.6   c9.8,0,17.6-2.5,23.5-7.6c5.9-5,8.8-12,8.8-20.9c0-8.6-2.4-15.5-7.3-20.5c-4.9-5-12.2-9.2-21.9-12.5c-6.1-2.7-10.4-5.1-12.9-7.3   c-2.5-2.2-3.7-5-3.7-8.4c0-3.7,1.1-6.7,3.3-9.1c2.2-2.4,5.3-3.6,9.3-3.6c4.3,0,7.6,1.5,9.9,4.4c2.4,2.9,3.5,6.7,3.5,11.4h19.4   l0.1-0.4c0.2-9-2.8-16.4-8.9-22.4c-6.1-5.9-14-8.9-23.8-8.9c-9.6,0-17.5,2.7-23.7,8c-6.2,5.3-9.3,12.2-9.3,20.6   c0,8.5,2.7,15.1,8,19.9c5.3,4.7,13.3,9,23.9,12.7c5.2,2.3,8.8,4.6,10.9,6.9c2.1,2.3,3.1,5.5,3.1,9.5   C386.7,719.6,385.7,722.7,383.6,724.9 M303.4,639.7v70c0,6.6-1.3,11.2-3.8,14.1c-2.5,2.8-6.2,4.2-11,4.2c-4.7,0-8.3-1.5-10.9-4.4   c-2.6-3-3.9-7.6-3.9-13.9v-70h-20v70c0,10.9,3.2,19.4,9.6,25.4c6.4,6,14.8,9,25.1,9c10.3,0,18.7-3,25.1-8.9   c6.4-6,9.6-14.4,9.6-25.4v-70H303.4z M200.3,655.8c5.6,0,9.9,2.4,12.9,7.3c3,4.9,4.5,11.3,4.5,19.3v17.5c0,8.1-1.5,14.5-4.5,19.4   c-3,4.9-7.3,7.3-12.9,7.3h-9.8v-70.8H200.3z M201.5,742.6c10.5,0,19.2-4,26-11.9c6.8-8,10.3-18.2,10.3-30.8v-17.3   c0-12.6-3.4-22.9-10.3-30.8c-6.8-8-15.5-12-26-12h-30.9v102.9H201.5z M151.4,639.7h-19.9v65.6l-0.4,0.1l-31.3-65.7h-20v102.9h20   V677l0.4-0.1l31.3,65.8h19.9V639.7z M59.6,639.7H39.7v102.9h19.9V639.7z"></path>	</g>	<path class="st1" d="M1940.5,81.9h-7.4v14.7h-6.6V58.4h13.4c4.4,0,7.8,1,10.2,3c2.4,2,3.6,4.8,3.6,8.6c0,2.6-0.6,4.7-1.9,6.4  c-1.2,1.7-3,3-5.2,4l8.6,15.9v0.3h-7.1L1940.5,81.9z M1933.1,76.5h6.8c2.2,0,4-0.6,5.2-1.7c1.3-1.1,1.9-2.7,1.9-4.6  c0-2-0.6-3.6-1.7-4.7c-1.2-1.1-2.9-1.7-5.2-1.7h-7V76.5z"></path>	<path class="st1" d="M1939.6,43.9c-18.6,0-33.8,15.1-33.8,33.8c0,18.6,15.1,33.8,33.8,33.8c18.6,0,33.8-15.1,33.8-33.8  C1973.4,59,1958.3,43.9,1939.6,43.9 M1939.6,106.4c-15.9,0-28.7-12.9-28.7-28.7c0-15.9,12.9-28.7,28.7-28.7  c15.9,0,28.7,12.9,28.7,28.7C1968.4,93.6,1955.5,106.4,1939.6,106.4"></path>	<path class="st1" d="M1806.6,484.3c4.8,14.4,17.7,24.2,31.8,24.4c19.2,0.3,29.3-17.3,30-18.5c8-14.4,2.9-29,2.1-31.2  c-45.9-133.1-80.5-230.7-91.1-261.8c-1.8-5.3-7-21.4-21.9-32.6c-4.4-3.3-16.9-12.5-34.8-11.8c-16.5,0.6-27.7,9.2-31.7,12.3  c-14.6,11.5-20,27.1-21.8,32.3c-10.4,29.7-45.3,125.4-91.6,256.1c-1.7,3.3-3.8,8.4-4.7,14.9c-0.5,3.4-1.5,11.1,1.2,18.4  c4.6,12.4,19.7,22.6,35.2,20.5c14.3-1.9,22.2-13.3,24.2-16.4c3.2-5,4.5-9.8,5.1-13c28.1-85.7,56.1-171.3,84.1-257  C1750.9,308.7,1778.8,396.5,1806.6,484.3"></path>	<path class="st1" d="M1480.1,307.4c-10.8,9.2-26.5,13.8-46.7,13.8h-43.3V210.2h43.3c20.7,0,36.5,4.5,47,13.3  c9.7,8.1,21.3,21.9,21.3,41.4C1501.7,285.9,1488.2,300.6,1480.1,307.4 M1534.3,184.1c-21.2-19.8-50.8-29.8-88.1-29.8h-72.1  c-9.8-0.2-25.1,1.3-35.4,11.8c-11.5,11.7-11.1,28.8-11.1,35.6c0.5,35-0.1,133.1,0,265.4c-0.4,3.9-0.9,15.2,6.3,25  c3.2,4.4,6.8,6.9,8,7.7c2,1.3,8.1,5.3,16.9,5.3c10.1,0,16.9-5.3,18.8-6.8c1-0.8,5.7-4.6,9-11.6c2.9-6,3.3-11.4,3.3-14.5  c0-31.8,0.1-64.1,0.1-96h62.6c35.7,0,63.8-9.8,83.6-29.1c19.7-19.2,29.7-46.9,29.7-82.3C1566,230.9,1555.3,203.7,1534.3,184.1"></path>	<path class="st1" d="M1039.6,244.7c17.1-22.1,40.3-33.2,69-33.2c28.7,0,51.9,11.2,69,33.2c16.6,21.4,24.9,50.3,24.9,85.9  c0,34.6-8.5,62.8-25.2,84c-17.2,21.8-40.3,32.8-68.7,32.8c-28.4,0-51.5-11-68.7-32.8c-16.7-21.1-25.2-49.4-25.2-84  C1014.7,295,1023.1,266.1,1039.6,244.7 M990.6,457.7c29.6,31.9,69.3,48.1,118.1,48.1c48.8,0,88.6-16.2,118.3-48.1  c29.9-32.1,45.1-75.2,45.1-128c0-52.5-15.2-95.5-45.2-127.8c-29.8-32.1-69.6-48.3-118.2-48.3c-48.4,0-88.1,16.2-117.8,48.2  c-29.9,32.2-45.1,75.2-45.1,127.9C945.8,382.5,960.8,425.6,990.6,457.7"></path>	<path class="st1" d="M874,111.5c328.4,0,656.7-0.1,985.1-0.1c3.1-0.8,10.9-3.4,17.3-10.8c7.4-8.7,7.9-18.4,8-21.9  c0.2-3.4,0.7-17.7-10.1-27.4c-6.3-5.6-13.4-7-16.6-7.5c-338.4,0.2-676.8,0.4-1015.3,0.6c-3.7,0-13.3,0.5-22.8,7.1  c-2.5,1.8-8.9,6.6-12.9,15.1c-0.4,0.9-2.4,5.2-3.5,11.3c-0.6,3.8-0.7,7.1-0.5,9.5v268C685.2,188.1,598.8,66,591.2,56.7  c-5.2-6.3-11.8-9.8-11.8-9.8c-2.1-1.1-5.3-2.6-9.3-3.3c-11.5-2.2-24.8,1.9-32.7,11.3c-5.7,6.7-7.1,14.4-7.9,18.6  c-0.9,4.7-0.9,8.7-0.7,11.6c0.1,126,0.3,252,0.4,377.9c-0.6,4.5-0.9,11.7,1.8,19.6c0.8,2.4,2.4,6.9,6.3,11.7  c1.1,1.4,3.3,3.9,6.5,6.3c2.3,1.7,9.5,6.9,20.1,7.1c1.8,0,12.5,0.1,21.4-7.1c2.5-2,4.1-4,5.6-5.8c2.3-2.8,5.7-7.1,7.9-13.7  c1.7-5.2,2-10.1,1.8-13.9c-0.1-95.4-0.3-190.8-0.4-286.3C741,391.4,794.5,472.6,798.5,480.6c0.4,0.7,2.6,5.2,6.8,10.3  c2.3,2.8,6.2,7.4,12.8,11.1c6.2,3.5,11.6,4.5,13.3,4.8c1.4,0.2,5.8,0.9,10.6,0.3c11.9-1.6,19.7-10.3,21.7-12.5  c11.3-12.7,10.5-28.7,10.2-32.2V111.5z"></path>	<g>		<polygon class="st2" points="128.1,294.4 128.1,97.4 71.2,130.2 71.2,327.2 153.3,374.6 210.2,341.8   "></polygon>		<path class="st2" d="M55.8,336.1V139l0,0c-17.6,10.1-28.4,28.9-28.4,49.2v164.2l82.1,47.4l28.4-16.4L55.8,336.1z"></path>		<path class="st2" d="M143.4,88.5v197l82.1,47.4v0c0-20.3-10.8-39.1-28.4-49.2l-25.3-14.6V104.9L254,57.5l-0.1-0.1   c-17.6-10.1-39.2-10.1-56.8,0L143.4,88.5z"></path>		<polygon class="st1" points="295.8,360.7 124.9,459.3 181.8,492.1 352.6,393.5 352.6,298.7 295.8,265.9   "></polygon>		<path class="st1" d="M368,402.4L197.1,501l0,0c17.6,10.1,39.2,10.1,56.8,0l142.4-82.2l0-94.8L368,307.6L368,402.4z"></path>		<path class="st1" d="M109.5,450.4l170.8-98.6l0-94.8l0,0c-17.6,10.1-28.4,28.9-28.4,49.2l0,29.2l-142.4,82.2l-82.1-47.5v0.1   c0,20.3,10.8,39.1,28.4,49.2L109.5,450.4z"></path>		<polygon class="st3" points="269.3,182.6 440.2,281.2 440.2,215.6 269.3,117 187.2,164.4 187.2,230   "></polygon>		<path class="st3" d="M269.3,99.2l170.9,98.7v0c0-20.3-10.8-39.1-28.4-49.2L269.3,66.4l-82.1,47.4l0,32.8L269.3,99.2z"></path>		<path class="st3" d="M440.2,299l-170.9-98.6l-82.1,47.4l0,0c17.6,10.1,39.2,10.1,56.8,0l25.3-14.6l142.4,82.2l-0.1,94.5l0.1-0.1   c17.6-10.1,28.4-28.9,28.4-49.2V299z"></path>	</g></g></svg>