<svg xmlns="http://www.w3.org/2000/svg" id="Ebene_2" data-name="Ebene 2" viewBox="0 0 638.14 120.64"><defs><style>      .cls-1 {        fill: red;      }      .cls-2 {        fill: #666;      }      .cls-3 {        fill: #42794a;      }      .cls-4 {        fill: #1a1a1a;      }    </style></defs><g id="Ebene_2-2" data-name="Ebene 2"><g><g><path class="cls-3" d="m183.03,109.66c-1.65,0-2.8-.21-3.43-.63-.63-.42-.95-1.02-.95-1.81,0-.58.13-.98.39-1.22.26-.24.66-.45,1.18-.63.37-.13.65-.26.85-.37.2-.12.33-.3.41-.53.32-1.08.62-2.32.91-3.74.29-1.42.54-2.89.75-4.43.21-1.54.37-3.04.49-4.51.12-1.47.18-2.78.18-3.94,0-.5-.11-.85-.33-1.06-.22-.21-.56-.41-1-.59-.42-.18-.74-.38-.97-.59-.22-.21-.33-.55-.33-1.02,0-.95.38-1.61,1.14-2.01.76-.39,1.72-.59,2.88-.59,1.52.05,3.2.08,5.04.08,1.68,0,3.99-.03,6.93-.08,2.49,0,4.44.55,5.83,1.63,1.39,1.09,2.09,2.67,2.09,4.75,0,1.23-.29,2.26-.87,3.09-.58.83-1.31,1.62-2.21,2.38-.5.42-.75.68-.75.79,0,.21.31.5.95.87.45.26.84.51,1.18.75.34.24.68.58,1.02,1.02.34.45.62,1.01.83,1.69.21.68.32,1.48.32,2.4,0,.84-.15,1.73-.45,2.66-.3.93-.82,1.83-1.56,2.7-.74.87-1.75,1.58-3.05,2.13s-2.88.83-4.75.83h-12.72Zm8.11-4.88c0,.32.09.51.28.59.18.08.51.12.98.12.66,0,1.19-.16,1.61-.47.42-.32.73-.72.95-1.2.21-.49.35-1.01.43-1.58.08-.56.12-1.17.12-1.83,0-1.08-.2-1.85-.59-2.32s-1.12-.71-2.17-.71c-.55,0-.88.05-.98.16s-.17.37-.2.79c-.03.29-.04.5-.04.63l-.39,5.83Zm.98-13.07c0,.08-.01.24-.04.47-.03.16-.04.28-.04.35,0,.26.07.46.2.59.13.13.37.2.71.2.6,0,1.1-.16,1.48-.49.38-.33.68-.74.89-1.24.21-.5.35-1.03.41-1.6.07-.56.1-1.12.1-1.67,0-.84-.15-1.46-.45-1.85-.3-.39-.85-.59-1.63-.59-.5,0-.8.05-.91.16-.11.11-.18.37-.24.79,0,.16-.01.32-.04.47l-.43,4.41Zm37.22-1.87c.26.22.39.61.39,1.16-.05.68-.2,1.94-.43,3.78-.37,2.68-.62,4.8-.75,6.38,0,.13-.01.34-.04.63-.03.39-.04.7-.04.91,0,.45.04.77.12.98.1.26.34.42.71.47h.16c.66.08.98.41.98.98s-.29,1.19-.87,1.77c-.58.58-1.31,1.1-2.19,1.56-.88.46-1.77.83-2.68,1.1-.91.28-1.63.41-2.19.41-.97,0-1.6-.2-1.89-.61-.29-.41-.49-.96-.59-1.67-.03-.37-.08-.64-.16-.81-.08-.17-.22-.26-.43-.26-.24,0-.7.3-1.38.91-.89.79-1.76,1.42-2.6,1.91-.84.49-1.85.73-3.03.73-1.63,0-2.86-.6-3.7-1.79-.84-1.19-1.26-2.72-1.26-4.59.08-1.76.4-3.47.96-5.12.56-1.65,1.33-3.14,2.28-4.47.96-1.33,2.09-2.4,3.39-3.23,1.3-.83,2.68-1.31,4.15-1.44h.28c.08-.03.17-.04.28-.04.63,0,1.17.09,1.61.28.45.18.95.45,1.5.79.6.39,1.05.59,1.34.59.16,0,.35-.05.57-.14.22-.09.49-.23.81-.41l.12-.08c.66-.34,1.24-.6,1.75-.77.51-.17,1.04-.26,1.6-.26s.96.11,1.22.33Zm-10.63,13.09c.52-.68,1.02-1.52,1.48-2.5.46-.98.83-1.97,1.12-2.95.29-.98.43-1.75.43-2.3,0-.34-.06-.64-.18-.89-.12-.25-.32-.37-.61-.37-.5.03-1.02.35-1.56.98-.54.63-1.05,1.41-1.54,2.34-.49.93-.87,1.88-1.16,2.84-.29.96-.43,1.75-.43,2.38,0,.39.07.75.2,1.06.13.32.37.47.71.47.5-.03,1.01-.38,1.54-1.06Zm23.94-.47c0,.37.05.69.14.96.09.28.27.41.53.41.16,0,.35-.03.59-.08.24-.03.43-.04.59-.04.31,0,.54.12.67.35.13.24.2.53.2.87,0,.76-.32,1.46-.96,2.09-.64.63-1.46,1.16-2.44,1.59s-1.99.76-3.01.98-1.88.33-2.56.33c-1.02,0-1.82-.25-2.38-.75-.56-.5-.85-1.31-.85-2.44,0-.1.01-.21.04-.32v-.32c.16-1.68.35-3.47.59-5.38.24-1.9.52-4.1.87-6.6.42-2.97.7-5.05.83-6.26v-.16c.03-.05.04-.09.04-.12,0-.45-.26-.67-.79-.67-.11,0-.26.01-.47.04-.21.03-.37.04-.47.04-.81,0-1.22-.38-1.22-1.14,0-.87.3-1.52.89-1.95.59-.43,1.42-.82,2.5-1.16,1.1-.37,2.24-.67,3.41-.91,1.17-.24,2.21-.35,3.13-.35.76,0,1.33.13,1.69.39.37.26.55.76.55,1.5l-2.09,19.06Zm15.71-11.78s-.01.09-.04.2c-.03.24-.04.45-.04.63,0,.21.03.39.1.53.07.14.18.22.33.22.13,0,.29-.06.47-.18.18-.12.39-.26.63-.41.05-.03.09-.05.12-.08,1.08-.79,2.05-1.37,2.91-1.75.87-.38,1.82-.57,2.88-.57,1.6,0,2.84.41,3.7,1.24.87.83,1.3,2.04,1.3,3.64,0,1.21-.35,2.24-1.06,3.09-.71.85-1.67,1.59-2.87,2.23-.03,0-.11.04-.24.12-.24.11-.42.2-.55.28-.13.08-.2.17-.2.28,0,.05.03.14.1.28.07.13.15.28.26.43l.04.08,1.77,2.84c.18.26.32.44.41.53.09.09.28.2.57.33l.16.08c.37.16.61.3.73.43.12.13.18.38.18.75,0,.58-.27,1.12-.81,1.63-.54.51-1.22.95-2.05,1.32-.83.37-1.66.66-2.5.87-.84.21-1.52.32-2.05.32-.97,0-1.67-.28-2.11-.83s-.85-1.4-1.24-2.56c-.11-.34-.2-.59-.28-.75-.03-.05-.05-.13-.08-.24-.24-.66-.47-1.2-.69-1.63-.22-.43-.44-.65-.65-.65-.26,0-.47.18-.63.53s-.25.7-.28,1.04c-.08.97-.2,1.73-.35,2.28-.16.55-.44,1.02-.85,1.4-.41.38-1,.68-1.79.89-.79.21-1.86.37-3.23.47h-.28c-.08.03-.17.04-.28.04-.71,0-1.25-.17-1.63-.51-.38-.34-.57-.87-.57-1.58,0-.66.05-1.25.16-1.77.13-.73.33-1.82.59-3.27.26-1.39.5-2.66.71-3.82.21-1.15.41-2.36.59-3.62.18-1.26.33-2.48.45-3.66.12-1.18.18-2.26.18-3.23,0-.63-.09-1.06-.26-1.3-.17-.24-.57-.35-1.2-.35h-.28c-.08.03-.14.04-.2.04-.32,0-.53-.07-.63-.22-.11-.14-.17-.41-.2-.81,0-.81.38-1.51,1.14-2.09.76-.58,1.69-1.04,2.8-1.38,1.1-.34,2.2-.58,3.29-.73,1.09-.14,1.96-.22,2.62-.22s1.13.11,1.42.33c.29.22.43.65.43,1.28,0,.34-.05.95-.16,1.81l-.08.51-.71,5.24Zm.28,9.53c.5-.26.98-.62,1.46-1.08.47-.46.86-.95,1.16-1.46.3-.51.45-1.02.45-1.52,0-.32-.08-.58-.24-.79-.16-.21-.38-.32-.67-.32-.45,0-.89.18-1.32.53-.43.35-.83.81-1.18,1.38-.35.56-.64,1.14-.85,1.71-.21.58-.32,1.08-.32,1.5,0,.13.01.24.04.32.03.08.09.12.2.12.34,0,.76-.13,1.26-.39Zm51.83-8.31c1.02-.42,1.88-.9,2.56-1.44.68-.54,1.02-1.2,1.02-1.99,0-.34-.11-.67-.32-.98-.21-.31-.47-.47-.79-.47-.21,0-.5.09-.87.28-.37.21-.68.32-.95.32-.29,0-.53-.13-.73-.39s-.3-.54-.3-.83c0-.55.17-1.06.51-1.54.34-.47.78-.87,1.32-1.2.54-.33,1.11-.58,1.71-.75.6-.17,1.16-.26,1.65-.26,1.68,0,3.01.58,3.98,1.73.97,1.16,1.46,2.59,1.46,4.29,0,1.05-.18,2.04-.55,2.97-.37.93-.87,1.76-1.52,2.48-.64.72-1.38,1.32-2.21,1.79s-1.69.8-2.58.98c-.31.05-.68.19-1.1.41-.42.22-.63.48-.63.77,0,.13.14.39.43.79.26.45.48.85.65,1.2.17.35.26.76.26,1.2,0,1.47-.53,2.82-1.58,4.04-1.05,1.22-2.32,2.2-3.82,2.93-1.37.63-2.84,1.12-4.41,1.46-1.58.34-3.15.51-4.73.51-1.84,0-3.62-.26-5.34-.77-1.72-.51-3.26-1.28-4.63-2.3-1.37-1.02-2.44-2.3-3.23-3.82-.79-1.52-1.18-3.26-1.18-5.2.03-2.34.58-4.16,1.65-5.47,1.08-1.31,2.72-2.34,4.92-3.07.39-.13.64-.26.73-.39.09-.13.14-.38.14-.75,0-.95.08-1.73.24-2.34.16-.62.51-1.21,1.06-1.79.79-.87,1.77-1.51,2.95-1.93,1.18-.42,2.42-.63,3.7-.63.89,0,1.76.11,2.6.32.84.21,1.59.49,2.24.85.66.35,1.17.76,1.54,1.22.37.46.55.93.55,1.4,0,.53-.2,1-.59,1.44-.39.43-.85.65-1.38.65-.32,0-.79-.16-1.42-.47-.76-.42-1.41-.63-1.93-.63-.6,0-1.1.19-1.5.57-.39.38-.59.87-.59,1.48,0,.53.11.92.33,1.18.22.26.56.53,1,.79.32.18.54.34.67.47.13.13.2.3.2.51,0,.53-.32,1.04-.96,1.56-.64.51-1.32.77-2.03.77-.47,0-1.04-.17-1.69-.51-.34-.16-.57-.24-.67-.24-.21,0-.42.16-.63.49-.21.33-.39.68-.55,1.04-.39.89-.59,1.92-.59,3.07,0,.97.15,1.91.45,2.82.3.91.74,1.72,1.32,2.44.58.72,1.28,1.29,2.11,1.69.83.41,1.74.61,2.74.61s1.95-.31,2.78-.93c.83-.62,1.24-1.42,1.24-2.42,0-.5-.16-.93-.47-1.28-.32-.35-.72-.53-1.22-.53-.42,0-.91.2-1.46.59-.42.29-.76.43-1.02.43-.5,0-.89-.22-1.16-.65-.28-.43-.41-.93-.41-1.48,0-.95.39-1.74,1.16-2.38.77-.64,1.77-1.24,2.97-1.79l6.85-2.91Zm27.92,17.76h-.2c-.39.03-.75.04-1.06.04-.84.05-1.6.08-2.28.08-.81,0-1.48-.18-2.01-.55-.53-.37-.79-.96-.79-1.77,0-.55.11-.95.33-1.2.22-.25.56-.49,1-.73.47-.21.85-.44,1.14-.69.29-.25.54-.62.75-1.12.21-.52.45-1.49.71-2.89.26-1.4.51-3,.75-4.79.24-1.79.43-3.45.57-5,.14-1.55.22-2.68.22-3.39,0-.34-.11-.6-.32-.79-.21-.18-.53-.37-.95-.55-.53-.21-.92-.44-1.18-.69-.26-.25-.39-.64-.39-1.16,0-1.1.75-1.83,2.24-2.19,1.5-.35,4.2-.53,8.11-.53,1.21,0,2.19.05,2.95.16.76.11,1.35.28,1.77.51.68.34,1.02.92,1.02,1.73,0,.68-.11,1.13-.33,1.34-.22.21-.6.37-1.12.47-.34.08-.64.17-.91.28-.26.11-.51.29-.75.55-.24.26-.45.67-.63,1.22-.18.55-.32,1.27-.39,2.17l-.95,11.54v.08c-.05.53-.08.93-.08,1.22,0,.42.04.76.12,1.02.16.37.49.6,1,.71.51.11,1.27.16,2.26.16,1.26,0,2.21-.25,2.84-.75.63-.5,1.22-1.22,1.77-2.17.42-.66.79-1.14,1.1-1.44.32-.3.75-.45,1.3-.45.81,0,1.41.24,1.79.73.38.49.57,1.15.57,1.99,0,.58-.09,1.28-.28,2.11-.18.83-.45,1.63-.79,2.42-.34.79-.77,1.44-1.28,1.97s-1.08.79-1.71.79c-.47,0-.95-.08-1.42-.24l-.2-.04c-.47-.11-.95-.16-1.42-.16h-12.92Zm23.24-1.54c-1.71-1.36-2.56-3.28-2.56-5.75,0-1.84.34-3.56,1.02-5.16.68-1.6,1.63-3,2.86-4.19,1.22-1.19,2.65-2.11,4.29-2.76,1.64-.64,3.38-.96,5.22-.96,2.6,0,4.75.68,6.44,2.03,1.69,1.35,2.54,3.28,2.54,5.77,0,1.84-.34,3.56-1.02,5.16-.68,1.6-1.63,3-2.86,4.19-1.22,1.19-2.65,2.11-4.29,2.76-1.64.64-3.38.96-5.22.96-2.57,0-4.71-.68-6.42-2.05Zm8.07-13.69c-.32.64-.58,1.46-.79,2.46-.03.13-.05.24-.08.32-.24,1.13-.43,2.32-.57,3.56-.14,1.25-.22,2.38-.22,3.41,0,.53.09.96.28,1.3.18.34.51.51.98.51.68,0,1.17-.3,1.46-.91.29-.6.52-1.39.71-2.36l.04-.28c.26-1.36.49-2.65.67-3.86.18-1.21.28-2.27.28-3.19,0-.55-.09-1.01-.28-1.38-.18-.37-.53-.55-1.02-.55-.66,0-1.14.32-1.46.96Zm24.85-7.07c-.03.37-.08.85-.16,1.46-.16,1.18-.24,2.07-.24,2.68,0,.18.04.35.12.49.08.14.2.22.35.22s.51-.25,1.06-.75c.73-.66,1.44-1.19,2.13-1.6.68-.41,1.5-.61,2.44-.61,1.76,0,3.08.65,3.96,1.95.88,1.3,1.32,2.97,1.32,5.02-.13,1.97-.53,3.79-1.18,5.47-.66,1.68-1.58,3.16-2.78,4.43-1.2,1.27-2.66,2.26-4.39,2.97-1.73.71-3.69,1.06-5.87,1.06-.89,0-1.75-.09-2.58-.28-.83-.18-1.6-.47-2.3-.87-.71-.39-1.28-.92-1.71-1.58-.43-.66-.65-1.44-.65-2.36,0-.66.05-1.37.16-2.15.1-.77.29-1.86.55-3.25.05-.37.12-.77.2-1.22.29-1.89.52-3.63.71-5.22.18-1.59.28-3.08.28-4.47,0-.63-.06-1.04-.18-1.24-.12-.2-.45-.31-1-.33-.66-.05-1.1-.16-1.32-.32-.22-.16-.33-.56-.33-1.22,0-.76.25-1.33.75-1.69.5-.37,1.22-.71,2.17-1.02.39-.13.89-.28,1.48-.45.59-.17,1.23-.33,1.91-.49.68-.16,1.33-.28,1.93-.37.6-.09,1.1-.14,1.5-.14.81,0,1.37.13,1.65.39.29.26.43.71.43,1.34,0,.18-.03.55-.08,1.1-.03.18-.04.35-.04.51l-.28,2.52Zm-.3,9.2c-.38.75-.7,1.65-.95,2.72-.25,1.06-.43,2.1-.55,3.11-.12,1.01-.18,1.77-.18,2.26v.08c.08.39.17.7.28.93.1.22.3.33.59.33.55,0,1.04-.35,1.46-1.06.42-.71.75-1.55,1-2.52.25-.97.44-1.92.57-2.84.13-.92.2-1.56.2-1.93v-.08c-.03-.6-.11-1.11-.26-1.52-.14-.41-.43-.61-.85-.61-.5,0-.94.37-1.32,1.12Zm23.89-9.2c-.03.37-.08.85-.16,1.46-.16,1.18-.24,2.07-.24,2.68,0,.18.04.35.12.49.08.14.2.22.35.22s.51-.25,1.06-.75c.73-.66,1.44-1.19,2.13-1.6.68-.41,1.5-.61,2.44-.61,1.76,0,3.08.65,3.96,1.95.88,1.3,1.32,2.97,1.32,5.02-.13,1.97-.53,3.79-1.18,5.47-.66,1.68-1.58,3.16-2.78,4.43-1.2,1.27-2.66,2.26-4.39,2.97-1.73.71-3.69,1.06-5.87,1.06-.89,0-1.75-.09-2.58-.28-.83-.18-1.59-.47-2.3-.87-.71-.39-1.28-.92-1.71-1.58-.43-.66-.65-1.44-.65-2.36,0-.66.05-1.37.16-2.15.1-.77.29-1.86.55-3.25.05-.37.12-.77.2-1.22.29-1.89.52-3.63.71-5.22.18-1.59.28-3.08.28-4.47,0-.63-.06-1.04-.18-1.24-.12-.2-.45-.31-1-.33-.66-.05-1.1-.16-1.32-.32-.22-.16-.33-.56-.33-1.22,0-.76.25-1.33.75-1.69.5-.37,1.22-.71,2.17-1.02.39-.13.89-.28,1.48-.45.59-.17,1.23-.33,1.91-.49.68-.16,1.33-.28,1.93-.37.6-.09,1.1-.14,1.5-.14.81,0,1.37.13,1.65.39.29.26.43.71.43,1.34,0,.18-.03.55-.08,1.1-.03.18-.04.35-.04.51l-.28,2.52Zm-.3,9.2c-.38.75-.7,1.65-.95,2.72-.25,1.06-.43,2.1-.55,3.11-.12,1.01-.18,1.77-.18,2.26v.08c.08.39.17.7.28.93.1.22.3.33.59.33.55,0,1.04-.35,1.46-1.06.42-.71.75-1.55,1-2.52.25-.97.44-1.92.57-2.84.13-.92.2-1.56.2-1.93v-.08c-.03-.6-.11-1.11-.26-1.52-.14-.41-.43-.61-.85-.61-.5,0-.94.37-1.32,1.12Zm34.32-6.73c.26.22.39.61.39,1.16-.05.68-.2,1.94-.43,3.78-.37,2.68-.62,4.8-.75,6.38,0,.13-.01.34-.04.63-.03.39-.04.7-.04.91,0,.45.04.77.12.98.1.26.34.42.71.47h.16c.66.08.98.41.98.98s-.29,1.19-.87,1.77c-.58.58-1.31,1.1-2.19,1.56-.88.46-1.77.83-2.68,1.1s-1.63.41-2.19.41c-.97,0-1.6-.2-1.89-.61-.29-.41-.49-.96-.59-1.67-.03-.37-.08-.64-.16-.81-.08-.17-.22-.26-.43-.26-.24,0-.7.3-1.38.91-.89.79-1.76,1.42-2.6,1.91-.84.49-1.85.73-3.03.73-1.63,0-2.86-.6-3.7-1.79-.84-1.19-1.26-2.72-1.26-4.59.08-1.76.4-3.47.96-5.12.56-1.65,1.33-3.14,2.28-4.47.96-1.33,2.09-2.4,3.39-3.23,1.3-.83,2.68-1.31,4.16-1.44h.28c.08-.03.17-.04.28-.04.63,0,1.17.09,1.61.28.45.18.95.45,1.5.79.6.39,1.05.59,1.34.59.16,0,.35-.05.57-.14.22-.09.49-.23.81-.41l.12-.08c.66-.34,1.24-.6,1.75-.77.51-.17,1.04-.26,1.59-.26s.96.11,1.22.33Zm-10.63,13.09c.52-.68,1.02-1.52,1.48-2.5.46-.98.83-1.97,1.12-2.95s.43-1.75.43-2.3c0-.34-.06-.64-.18-.89-.12-.25-.32-.37-.61-.37-.5.03-1.02.35-1.56.98-.54.63-1.05,1.41-1.54,2.34-.49.93-.87,1.88-1.16,2.84-.29.96-.43,1.75-.43,2.38,0,.39.07.75.2,1.06.13.32.37.47.71.47.5-.03,1.01-.38,1.54-1.06Zm29.3.59c.71-.45,1.26-.67,1.65-.67.47,0,.85.24,1.12.71.28.47.41.96.41,1.46,0,.63-.28,1.2-.85,1.71-.57.51-1.24.98-2.03,1.4-2.44,1.37-4.98,2.05-7.6,2.05s-4.65-.61-6.22-1.83-2.36-3.09-2.36-5.61c0-1.79.37-3.49,1.12-5.12.75-1.63,1.77-3.07,3.07-4.31,1.3-1.25,2.78-2.23,4.43-2.93,1.65-.71,3.36-1.06,5.12-1.06s3.29.45,4.59,1.34c1.3.89,1.98,2.19,2.03,3.9,0,1.29-.47,2.42-1.4,3.39-.93.97-2,1.46-3.21,1.46-.71,0-1.37-.22-1.99-.65-.62-.43-.93-1-.93-1.71,0-.39.13-.93.39-1.61.18-.5.28-.84.28-1.02,0-.47-.24-.71-.71-.71-.55,0-1.02.28-1.42.85-.39.57-.72,1.28-.96,2.15-.25.87-.43,1.77-.55,2.7-.12.93-.18,1.75-.18,2.46,0,.87.14,1.62.41,2.26.28.64.78.96,1.52.96.66,0,1.29-.12,1.91-.35.62-.24,1.31-.58,2.07-1.02.13-.08.22-.13.28-.16Zm17.21-12.84s-.01.09-.04.2c-.03.24-.04.45-.04.63,0,.21.03.39.1.53.07.14.18.22.33.22.13,0,.29-.06.47-.18.18-.12.39-.26.63-.41.05-.03.09-.05.12-.08,1.08-.79,2.05-1.37,2.91-1.75.87-.38,1.82-.57,2.87-.57,1.6,0,2.84.41,3.7,1.24.87.83,1.3,2.04,1.3,3.64,0,1.21-.35,2.24-1.06,3.09-.71.85-1.67,1.59-2.88,2.23-.03,0-.1.04-.24.12-.24.11-.42.2-.55.28-.13.08-.2.17-.2.28,0,.05.03.14.1.28.07.13.15.28.26.43l.04.08,1.77,2.84c.18.26.32.44.41.53.09.09.28.2.57.33l.16.08c.37.16.61.3.73.43.12.13.18.38.18.75,0,.58-.27,1.12-.81,1.63-.54.51-1.22.95-2.05,1.32-.83.37-1.66.66-2.5.87-.84.21-1.52.32-2.05.32-.97,0-1.67-.28-2.11-.83s-.85-1.4-1.24-2.56c-.1-.34-.2-.59-.28-.75-.03-.05-.05-.13-.08-.24-.24-.66-.47-1.2-.69-1.63-.22-.43-.44-.65-.65-.65-.26,0-.47.18-.63.53s-.25.7-.28,1.04c-.08.97-.2,1.73-.35,2.28-.16.55-.44,1.02-.85,1.4-.41.38-1,.68-1.79.89-.79.21-1.87.37-3.23.47h-.28c-.08.03-.17.04-.28.04-.71,0-1.25-.17-1.63-.51-.38-.34-.57-.87-.57-1.58,0-.66.05-1.25.16-1.77.13-.73.33-1.82.59-3.27.26-1.39.5-2.66.71-3.82.21-1.15.41-2.36.59-3.62s.34-2.48.45-3.66c.12-1.18.18-2.26.18-3.23,0-.63-.09-1.06-.26-1.3-.17-.24-.57-.35-1.2-.35h-.28c-.08.03-.14.04-.2.04-.31,0-.53-.07-.63-.22-.11-.14-.17-.41-.2-.81,0-.81.38-1.51,1.14-2.09.76-.58,1.69-1.04,2.8-1.38,1.1-.34,2.2-.58,3.29-.73,1.09-.14,1.96-.22,2.62-.22s1.13.11,1.42.33c.29.22.43.65.43,1.28,0,.34-.05.95-.16,1.81l-.08.51-.71,5.24Zm.28,9.53c.5-.26.98-.62,1.46-1.08.47-.46.86-.95,1.16-1.46s.45-1.02.45-1.52c0-.32-.08-.58-.24-.79-.16-.21-.38-.32-.67-.32-.45,0-.89.18-1.32.53-.43.35-.83.81-1.18,1.38-.35.56-.64,1.14-.85,1.71-.21.58-.31,1.08-.31,1.5,0,.13.01.24.04.32.03.08.09.12.2.12.34,0,.76-.13,1.26-.39Zm52-14.45c.33.89.49,1.77.49,2.64,0,1.18-.35,2.17-1.04,2.97-.7.8-1.62,1.2-2.78,1.2-.79,0-1.4-.22-1.83-.67-.43-.45-.87-1.12-1.32-2.01-.47-.89-.92-1.56-1.34-2.01-.42-.45-1.02-.67-1.81-.67-1.08,0-2.01.39-2.8,1.16-.79.77-1.42,1.76-1.91,2.95-.49,1.19-.85,2.42-1.08,3.68-.24,1.26-.35,2.38-.35,3.35,0,.68.07,1.36.2,2.03s.35,1.31.65,1.91c.3.6.71,1.09,1.22,1.46.51.37,1.12.55,1.83.55.76,0,1.37-.24,1.83-.73.46-.49.69-1.11.69-1.87,0-.55-.07-.91-.2-1.06s-.47-.3-1.02-.43c-1.02-.26-1.54-.87-1.54-1.81,0-.68.29-1.24.87-1.67.58-.43,1.29-.75,2.15-.95.85-.2,1.73-.32,2.62-.37.89-.05,1.8-.08,2.72-.08.79,0,1.55.03,2.28.1.74.07,1.44.2,2.13.41.68.21,1.25.53,1.69.95.45.42.67.97.67,1.65,0,.58-.16,1-.47,1.26-.31.26-.77.46-1.38.59-.42.11-.71.26-.87.45-.16.2-.3.52-.43.96l-.16.43c-.5,1.39-1.23,2.6-2.21,3.62-.97,1.02-2.1,1.86-3.39,2.52-1.29.66-2.65,1.14-4.08,1.46-1.43.31-2.88.47-4.35.47-3.73,0-6.73-.97-9.02-2.91-2.28-1.94-3.43-4.73-3.43-8.35,0-2.23.43-4.4,1.28-6.5.85-2.1,2.04-3.98,3.56-5.63,1.52-1.65,3.29-2.95,5.32-3.9,2.02-.95,4.16-1.42,6.42-1.42.66,0,1.25.07,1.77.2.52.13,1.1.3,1.73.51.6.21.98.32,1.14.32s.42-.05.79-.16c.42-.13.75-.2.98-.2.42,0,.85.13,1.28.39.43.26.81.58,1.12.95.58.6,1.03,1.35,1.36,2.24Zm26.05,4.47c.76.49,1.27,1.18,1.54,2.07.03.08.04.14.04.2.05.18.1.32.14.41.04.09.12.14.26.14.1,0,.45-.22,1.02-.67,1-.81,2.01-1.5,3.05-2.05,1.04-.55,2.21-.83,3.52-.83,1.21,0,2.17.36,2.87,1.08.71.72,1.06,1.67,1.06,2.86,0,.53-.05,1.16-.16,1.91-.11.75-.29,1.88-.55,3.41-.18,1.08-.33,1.97-.43,2.68-.11.71-.16,1.25-.16,1.61,0,.47.09.77.28.91.18.13.46.21.83.24.34.05.59.13.75.24.16.11.24.34.24.71,0,.68-.3,1.31-.89,1.89-.59.58-1.33,1.08-2.21,1.5-.88.42-1.78.75-2.7,1-.92.25-1.67.39-2.25.41-.89,0-1.58-.25-2.05-.75s-.76-1.18-.87-2.05c0-1.15.22-2.87.67-5.16.42-2.15.63-3.74.63-4.77,0-.39-.07-.7-.22-.93-.14-.22-.4-.33-.77-.33-.63,0-1.15.22-1.56.67-.41.45-.72,1.01-.95,1.69-.22.68-.38,1.37-.47,2.07-.09.7-.16,1.44-.22,2.23-.03.39-.05.66-.08.79-.13,1.29-.28,2.33-.45,3.13-.17.8-.4,1.36-.69,1.67-.55.63-1.39,1.08-2.52,1.34-1.13.26-2.24.39-3.35.39-.84,0-1.44-.16-1.81-.49s-.55-.91-.55-1.75c0-1.02.24-2.66.71-4.92.26-1.13.46-2.11.59-2.95.13-.84.2-1.64.2-2.4,0-.5-.07-.87-.2-1.1-.13-.24-.42-.35-.87-.35-.63,0-1.15.31-1.56.93-.41.62-.72,1.38-.95,2.28-.22.91-.39,1.78-.49,2.62-.11.84-.18,1.67-.24,2.48v.16c-.03.34-.04.54-.04.59-.11,1.05-.22,1.82-.33,2.32-.12.5-.38.93-.79,1.3-.41.37-1.04.66-1.91.87-.87.21-2.07.37-3.62.47-.89,0-1.55-.16-1.97-.49-.42-.33-.63-.87-.63-1.63,0-.26.04-.64.12-1.12.08-.49.22-1.31.43-2.46.31-1.65.56-3.1.75-4.33.18-1.23.28-2.3.28-3.19,0-.45-.06-.77-.18-.98-.12-.21-.37-.31-.77-.31-.6,0-1.07-.07-1.4-.22-.33-.14-.49-.48-.49-1,0-.6.26-1.11.79-1.52.52-.41,1.21-.82,2.05-1.24l.24-.12c1.16-.58,2.23-1.03,3.21-1.36.98-.33,1.95-.49,2.89-.49.68,0,1.19.2,1.54.59.34.39.54.95.59,1.65,0,.29.05.58.14.87.09.29.24.43.45.43s.76-.31,1.65-.95c1.1-.76,2.14-1.38,3.11-1.87.97-.49,1.99-.73,3.07-.73.97,0,1.84.24,2.6.73Zm27.88-2.86c-.03.37-.08.85-.16,1.46-.16,1.18-.24,2.07-.24,2.68,0,.18.04.35.12.49.08.14.2.22.35.22s.51-.25,1.06-.75c.73-.66,1.44-1.19,2.13-1.6.68-.41,1.5-.61,2.44-.61,1.76,0,3.08.65,3.96,1.95.88,1.3,1.32,2.97,1.32,5.02-.13,1.97-.53,3.79-1.18,5.47-.66,1.68-1.58,3.16-2.78,4.43-1.2,1.27-2.66,2.26-4.39,2.97-1.73.71-3.69,1.06-5.87,1.06-.89,0-1.75-.09-2.58-.28-.83-.18-1.59-.47-2.3-.87-.71-.39-1.28-.92-1.71-1.58-.43-.66-.65-1.44-.65-2.36,0-.66.05-1.37.16-2.15.1-.77.29-1.86.55-3.25.05-.37.12-.77.2-1.22.29-1.89.52-3.63.71-5.22.18-1.59.28-3.08.28-4.47,0-.63-.06-1.04-.18-1.24-.12-.2-.45-.31-1-.33-.66-.05-1.1-.16-1.32-.32-.22-.16-.33-.56-.33-1.22,0-.76.25-1.33.75-1.69.5-.37,1.22-.71,2.17-1.02.39-.13.89-.28,1.48-.45.59-.17,1.23-.33,1.91-.49.68-.16,1.33-.28,1.93-.37.6-.09,1.1-.14,1.5-.14.81,0,1.37.13,1.65.39.29.26.43.71.43,1.34,0,.18-.03.55-.08,1.1-.03.18-.04.35-.04.51l-.28,2.52Zm-.3,9.2c-.38.75-.7,1.65-.95,2.72-.25,1.06-.43,2.1-.55,3.11-.12,1.01-.18,1.77-.18,2.26v.08c.08.39.17.7.28.93.1.22.3.33.59.33.55,0,1.04-.35,1.46-1.06.42-.71.75-1.55,1-2.52.25-.97.44-1.92.57-2.84.13-.92.2-1.56.2-1.93v-.08c-.03-.6-.11-1.11-.26-1.52-.14-.41-.43-.61-.85-.61-.5,0-.94.37-1.32,1.12Zm23.97,8.09c0,.34.07.6.22.77.14.17.35.33.61.49.31.16.54.33.69.51.14.18.22.47.22.87s-.09.75-.26,1.06c-.17.32-.49.59-.95.83-.46.24-1.14.43-2.05.57-.91.14-2.07.22-3.49.22-2.7,0-4.61-.16-5.73-.47-1.12-.32-1.67-1-1.67-2.05,0-.45.12-.79.35-1.02.24-.24.58-.49,1.02-.75.34-.18.6-.35.77-.49.17-.14.3-.33.37-.57.42-1.39.77-2.86,1.06-4.39.29-1.54.52-3.05.71-4.53.18-1.48.31-2.88.37-4.17.07-1.3.1-2.47.1-3.52,0-.52-.1-.89-.3-1.1-.2-.21-.48-.41-.85-.59-.37-.16-.64-.34-.83-.55-.18-.21-.28-.55-.28-1.02,0-.34.08-.67.26-.98.17-.31.53-.63,1.08-.95s1.42-.57,2.6-.77c1.18-.2,2.73-.3,4.65-.3,2.23,0,3.75.19,4.55.57.8.38,1.2.96,1.2,1.75,0,.53-.11.92-.32,1.18-.21.26-.52.53-.95.79-.39.26-.71.52-.95.77-.24.25-.39.62-.47,1.12-.34,2.21-.51,3.62-.51,4.25,0,.42.2.72.59.89.39.17,1.31.26,2.76.26.58,0,1.14-.07,1.69-.2.55-.13.89-.38,1.02-.75.08-.18.14-.51.2-.96.05-.46.1-.9.14-1.32.04-.42.07-.87.1-1.34.03-.47.04-.84.04-1.1,0-.5-.08-.86-.24-1.08-.16-.22-.38-.44-.67-.65-.29-.18-.5-.37-.63-.57s-.2-.51-.2-.93c0-.52.12-.95.35-1.28.24-.33.65-.6,1.24-.81.59-.21,1.4-.36,2.44-.45,1.04-.09,2.37-.14,4-.14,1.26,0,2.3.05,3.13.16.83.11,1.45.26,1.87.45.42.2.71.43.87.69.16.26.24.58.24.95,0,.58-.1.98-.31,1.2-.21.22-.53.41-.95.57-.47.21-.85.45-1.12.73-.28.28-.45.76-.53,1.44l-.39,2.91c-.42,2.78-.75,5.18-.98,7.19s-.38,3.93-.43,5.77c0,.66.09,1.1.28,1.34s.46.42.83.55c.34.13.6.3.77.51.17.21.26.59.26,1.14,0,.84-.49,1.49-1.46,1.95-.97.46-2.72.69-5.24.69-3.05,0-5.09-.15-6.12-.45-1.04-.3-1.56-.99-1.56-2.07,0-.47.1-.81.3-1.02.2-.21.48-.39.85-.55.37-.16.65-.32.85-.49.2-.17.34-.44.41-.81.03-.18.05-.31.08-.39.29-1.44.49-2.53.61-3.25.12-.72.18-1.33.18-1.83,0-.52-.26-.87-.77-1.02-.51-.16-1.11-.24-1.79-.24-.81,0-1.44.03-1.87.08-.43.05-.77.16-1,.32-.29.18-.5.67-.63,1.46,0,.03-.01.09-.04.2l-.39,4.77Z"></path><path class="cls-4" d="m178.66,64.09v-27.38h18.41v5.57h-12.03v5.18h11.37v5.3h-11.37v5.69h12.72v5.65h-19.11Zm23.14,0v-29.24h6.46v29.24h-6.46Zm30.15-9.4v.77c0,.26-.01.5-.04.73h-13.96c.05.54.21,1.03.48,1.47.27.44.62.82,1.04,1.14.43.32.9.57,1.43.75.53.18,1.08.27,1.64.27,1.01,0,1.86-.19,2.55-.56.7-.37,1.26-.86,1.7-1.45l4.41,2.78c-.9,1.32-2.1,2.33-3.58,3.04-1.48.71-3.2,1.06-5.16,1.06-1.44,0-2.81-.23-4.1-.68-1.29-.45-2.42-1.11-3.38-1.97-.97-.86-1.73-1.93-2.28-3.19-.55-1.26-.83-2.71-.83-4.33s.27-3,.81-4.27c.54-1.28,1.28-2.36,2.2-3.25.93-.89,2.02-1.58,3.29-2.07,1.26-.49,2.63-.74,4.1-.74s2.72.24,3.91.72c1.19.48,2.2,1.17,3.06,2.07.85.9,1.51,2,1.99,3.29.48,1.29.72,2.76.72,4.41Zm-5.84-2.44c0-1.01-.32-1.87-.95-2.59-.63-.72-1.58-1.08-2.84-1.08-.62,0-1.19.1-1.7.29-.52.19-.97.46-1.35.79-.39.34-.7.73-.93,1.18-.23.45-.36.92-.39,1.41h8.16Zm30.04,11.83h-7.85l-6.3-9.24h-.12v9.24h-6.38v-29.24h6.38v17.79h.12l6.15-7.81h7.7l-7.43,8.7,7.74,10.56Zm10.21-14.54v7.38c0,.91.17,1.58.52,2.04.35.45.97.68,1.88.68.31,0,.64-.03.99-.08.35-.05.64-.13.87-.23l.08,4.64c-.44.15-.99.29-1.66.41-.67.12-1.34.17-2.01.17-1.29,0-2.37-.16-3.25-.48-.88-.32-1.58-.79-2.11-1.4-.53-.61-.91-1.33-1.14-2.17-.23-.84-.35-1.78-.35-2.81v-8.14h-3.09v-4.72h3.06v-5.07h6.23v5.07h4.53v4.72h-4.53Zm20.29.5c-.28-.08-.56-.13-.83-.15-.27-.03-.54-.04-.79-.04-.85,0-1.57.16-2.15.46-.58.31-1.04.68-1.39,1.12-.35.44-.6.91-.75,1.43s-.23.96-.23,1.35v9.87h-6.34v-19.24h6.11v2.78h.08c.49-.99,1.19-1.79,2.09-2.41.9-.62,1.95-.93,3.13-.93.26,0,.51.01.75.04.24.03.44.06.6.12l-.27,5.61Zm23.04,4.33c0,1.57-.28,3-.85,4.27-.57,1.28-1.34,2.36-2.32,3.25-.98.89-2.11,1.58-3.4,2.07-1.29.49-2.67.73-4.14.73s-2.82-.25-4.12-.73c-1.3-.49-2.44-1.18-3.4-2.07-.97-.89-1.73-1.97-2.3-3.25-.57-1.28-.85-2.7-.85-4.27s.28-2.99.85-4.25c.57-1.26,1.33-2.33,2.3-3.21.97-.88,2.1-1.55,3.4-2.01,1.3-.46,2.67-.7,4.12-.7s2.85.23,4.14.7c1.29.46,2.42,1.13,3.4,2.01.98.88,1.75,1.95,2.32,3.21.57,1.26.85,2.68.85,4.25Zm-6.11,0c0-.62-.1-1.22-.31-1.82-.21-.59-.5-1.12-.89-1.57-.39-.45-.86-.82-1.43-1.1-.57-.28-1.22-.43-1.97-.43s-1.41.14-1.97.43c-.57.28-1.04.65-1.41,1.1-.37.45-.66.97-.85,1.57-.19.59-.29,1.2-.29,1.82s.1,1.22.29,1.82c.19.59.48,1.13.87,1.61.39.48.86.86,1.43,1.14.57.28,1.22.43,1.97.43s1.41-.14,1.97-.43c.57-.28,1.04-.66,1.43-1.14.39-.48.68-1.01.87-1.61.19-.59.29-1.2.29-1.82Zm16.38-15.7c0,.49-.1.95-.29,1.37-.19.43-.45.79-.77,1.1-.32.31-.71.55-1.16.73-.45.18-.92.27-1.41.27-1.03,0-1.9-.34-2.59-1.03-.7-.68-1.04-1.5-1.04-2.46,0-.46.09-.91.27-1.33.18-.43.44-.79.77-1.1.33-.31.72-.56,1.16-.75.44-.19.91-.29,1.43-.29.49,0,.96.09,1.41.27.45.18.84.43,1.16.73.32.31.58.68.77,1.1.19.43.29.88.29,1.37Zm-6.81,25.41v-19.26h6.34v19.26h-6.34Zm23.56,0v-10.52c0-.54-.05-1.06-.14-1.55-.09-.49-.24-.92-.44-1.3-.21-.37-.5-.67-.87-.89-.37-.22-.84-.33-1.41-.33s-1.06.11-1.49.33c-.43.22-.78.52-1.06.91-.28.39-.5.83-.64,1.33-.14.5-.21,1.03-.21,1.57v10.44h-6.38v-19.26h6.15v2.67h.08c.23-.41.53-.82.91-1.22.37-.4.81-.74,1.32-1.02.5-.28,1.05-.52,1.64-.7.59-.18,1.22-.27,1.89-.27,1.29,0,2.38.23,3.29.7.9.46,1.63,1.06,2.18,1.8.55.74.95,1.58,1.2,2.53.24.95.37,1.91.37,2.86v11.91h-6.38Zm22.18-13.58c-.52-.49-1.12-.9-1.82-1.24-.7-.33-1.43-.5-2.2-.5-.59,0-1.14.12-1.64.35-.5.23-.75.63-.75,1.2s.28.93.83,1.16c.55.23,1.45.49,2.69.77.72.15,1.45.37,2.19.66.74.28,1.4.66,1.99,1.12.59.46,1.07,1.03,1.43,1.7.36.67.54,1.47.54,2.4,0,1.21-.25,2.24-.74,3.07-.49.84-1.13,1.51-1.91,2.03-.79.52-1.67.89-2.65,1.12-.98.23-1.96.35-2.94.35-1.57,0-3.11-.25-4.62-.75-1.51-.5-2.77-1.24-3.77-2.22l3.56-3.75c.57.62,1.26,1.13,2.09,1.55.83.41,1.7.62,2.63.62.52,0,1.03-.12,1.53-.37.5-.24.75-.68.75-1.3s-.31-1.03-.93-1.31c-.62-.28-1.59-.58-2.9-.89-.67-.15-1.34-.36-2.01-.62-.67-.26-1.27-.61-1.8-1.04-.53-.44-.96-.98-1.3-1.62-.34-.64-.5-1.42-.5-2.32,0-1.16.24-2.15.74-2.96.49-.81,1.12-1.48,1.89-1.99.77-.52,1.63-.9,2.57-1.14.94-.24,1.88-.37,2.8-.37,1.44,0,2.86.23,4.23.68,1.38.45,2.55,1.13,3.5,2.03l-3.48,3.6Zm14.39-.97v7.38c0,.91.17,1.58.52,2.04.35.45.97.68,1.88.68.31,0,.64-.03.99-.08.35-.05.64-.13.87-.23l.08,4.64c-.44.15-.99.29-1.66.41-.67.12-1.34.17-2.01.17-1.29,0-2.37-.16-3.25-.48-.88-.32-1.58-.79-2.11-1.4-.53-.61-.91-1.33-1.14-2.17s-.35-1.78-.35-2.81v-8.14h-3.09v-4.72h3.05v-5.07h6.23v5.07h4.53v4.72h-4.53Zm7.28-2.09c1.13-1.08,2.46-1.89,3.96-2.44,1.51-.54,3.05-.81,4.62-.81s3,.2,4.12.6c1.12.4,2.03,1.02,2.73,1.86.7.84,1.2,1.89,1.53,3.17.32,1.28.48,2.79.48,4.54v9.71h-5.8v-2.05h-.12c-.49.8-1.23,1.42-2.22,1.86-.99.44-2.07.66-3.23.66-.77,0-1.57-.1-2.4-.31-.83-.21-1.58-.54-2.26-1.01s-1.24-1.08-1.68-1.86c-.44-.77-.66-1.73-.66-2.86,0-1.39.38-2.51,1.14-3.36.76-.85,1.74-1.51,2.94-1.97s2.53-.77,4-.93c1.47-.15,2.9-.23,4.29-.23v-.31c0-.95-.34-1.66-1.01-2.11-.67-.45-1.5-.68-2.47-.68-.9,0-1.77.19-2.61.58-.84.39-1.55.85-2.15,1.39l-3.21-3.44Zm11.64,8.24h-.81c-.7,0-1.4.03-2.11.1-.71.06-1.34.19-1.89.37-.55.18-1.01.44-1.37.79s-.54.81-.54,1.37c0,.36.08.67.25.93.17.26.38.46.64.62s.55.26.89.33c.33.06.66.1.97.1,1.29,0,2.28-.35,2.96-1.06.68-.71,1.02-1.67,1.02-2.88v-.66Zm10.22,8.39v-29.24h6.46v29.24h-6.46Zm11.04,0v-29.24h6.46v29.24h-6.46Zm10.77-16.63c1.13-1.08,2.46-1.89,3.96-2.44,1.51-.54,3.05-.81,4.62-.81s3,.2,4.12.6c1.12.4,2.03,1.02,2.73,1.86.7.84,1.2,1.89,1.53,3.17.32,1.28.48,2.79.48,4.54v9.71h-5.8v-2.05h-.12c-.49.8-1.23,1.42-2.22,1.86-.99.44-2.07.66-3.23.66-.77,0-1.57-.1-2.4-.31-.83-.21-1.58-.54-2.26-1.01s-1.24-1.08-1.68-1.86c-.44-.77-.66-1.73-.66-2.86,0-1.39.38-2.51,1.14-3.36.76-.85,1.74-1.51,2.94-1.97s2.53-.77,4-.93c1.47-.15,2.9-.23,4.29-.23v-.31c0-.95-.34-1.66-1.01-2.11-.67-.45-1.5-.68-2.47-.68-.9,0-1.77.19-2.61.58-.84.39-1.55.85-2.15,1.39l-3.21-3.44Zm11.64,8.24h-.81c-.7,0-1.4.03-2.11.1-.71.06-1.34.19-1.89.37-.55.18-1.01.44-1.37.79s-.54.81-.54,1.37c0,.36.08.67.25.93.17.26.38.46.64.62s.55.26.89.33c.33.06.66.1.97.1,1.29,0,2.28-.35,2.96-1.06.68-.71,1.02-1.67,1.02-2.88v-.66Zm17.08-6.15v7.38c0,.91.17,1.58.52,2.04.35.45.97.68,1.88.68.31,0,.64-.03.99-.08.35-.05.64-.13.87-.23l.08,4.64c-.44.15-.99.29-1.66.41-.67.12-1.34.17-2.01.17-1.29,0-2.37-.16-3.25-.48-.88-.32-1.58-.79-2.11-1.4-.53-.61-.91-1.33-1.14-2.17s-.35-1.78-.35-2.81v-8.14h-3.09v-4.72h3.05v-5.07h6.23v5.07h4.53v4.72h-4.53Zm14.49-10.87c0,.49-.1.95-.29,1.37-.19.43-.45.79-.77,1.1-.32.31-.71.55-1.16.73-.45.18-.92.27-1.41.27-1.03,0-1.89-.34-2.59-1.03-.7-.68-1.04-1.5-1.04-2.46,0-.46.09-.91.27-1.33.18-.43.44-.79.77-1.1s.72-.56,1.16-.75c.44-.19.91-.29,1.43-.29.49,0,.96.09,1.41.27.45.18.84.43,1.16.73.32.31.58.68.77,1.1.19.43.29.88.29,1.37Zm-6.81,25.41v-19.26h6.34v19.26h-6.34Zm31.2-9.71c0,1.57-.28,3-.85,4.27-.57,1.28-1.34,2.36-2.32,3.25-.98.89-2.11,1.58-3.4,2.07-1.29.49-2.67.73-4.14.73s-2.82-.25-4.12-.73c-1.3-.49-2.44-1.18-3.4-2.07-.97-.89-1.73-1.97-2.3-3.25-.57-1.28-.85-2.7-.85-4.27s.28-2.99.85-4.25c.57-1.26,1.33-2.33,2.3-3.21.97-.88,2.1-1.55,3.4-2.01,1.3-.46,2.67-.7,4.12-.7s2.85.23,4.14.7c1.29.46,2.42,1.13,3.4,2.01.98.88,1.75,1.95,2.32,3.21.57,1.26.85,2.68.85,4.25Zm-6.11,0c0-.62-.1-1.22-.31-1.82-.21-.59-.5-1.12-.89-1.57-.39-.45-.86-.82-1.43-1.1-.57-.28-1.22-.43-1.97-.43s-1.41.14-1.97.43c-.57.28-1.04.65-1.41,1.1-.37.45-.66.97-.85,1.57-.19.59-.29,1.2-.29,1.82s.1,1.22.29,1.82c.19.59.48,1.13.87,1.61.39.48.86.86,1.43,1.14.57.28,1.22.43,1.97.43s1.41-.14,1.97-.43c.57-.28,1.04-.66,1.43-1.14.39-.48.68-1.01.87-1.61.19-.59.29-1.2.29-1.82Zm22.32,9.71v-10.52c0-.54-.05-1.06-.14-1.55-.09-.49-.24-.92-.44-1.3-.21-.37-.5-.67-.87-.89-.37-.22-.84-.33-1.41-.33s-1.06.11-1.49.33c-.42.22-.78.52-1.06.91-.28.39-.5.83-.64,1.33-.14.5-.21,1.03-.21,1.57v10.44h-6.38v-19.26h6.15v2.67h.08c.23-.41.54-.82.91-1.22.37-.4.81-.74,1.32-1.02.5-.28,1.05-.52,1.64-.7.59-.18,1.22-.27,1.9-.27,1.29,0,2.38.23,3.29.7.9.46,1.63,1.06,2.19,1.8.55.74.95,1.58,1.2,2.53.24.95.37,1.91.37,2.86v11.91h-6.38Z"></path></g><g><path class="cls-3" d="m128.96,87.26c0,10.85,0,21.71,0,32.56,0,.69-.11.81-.82.81-2.43-.01-4.86-.05-7.29-.05-1.74,0-3.48.05-5.22.05-7.77,0-15.54,0-23.31,0-2.27,0-4.55-.05-6.82-.05-7.84,0-15.68.04-23.51.05-2.91,0-5.82-.05-8.73-.05-6.12,0-12.23.04-18.35.05-2.6,0-5.2-.04-7.8-.04-2.86,0-5.72.03-8.58.05-.92,0-1.03-.09-1.03-1.04,0-4.41,0-8.82,0-13.23,0-16.33,0-32.67,0-49,0-.88,0-1.76,0-2.64,0-.64-.12-.75-.8-.75-1.38,0-2.76,0-4.13,0-3.67,0-7.34,0-11.01.02-.4,0-.79.05-1.19.05-.13,0-.33-.08-.38-.18-.04-.09.05-.3.15-.38.61-.48,1.23-.94,1.85-1.39,2.25-1.64,4.51-3.27,6.75-4.92,1.55-1.14,3.08-2.31,4.63-3.45,1.79-1.31,3.59-2.6,5.38-3.91,1.87-1.37,3.71-2.78,5.59-4.15,2.76-2.02,5.53-4.02,8.3-6.03,1.75-1.27,3.52-2.53,5.26-3.82,1.51-1.11,2.97-2.28,4.48-3.39,2.44-1.79,4.91-3.54,7.35-5.32,1.67-1.22,3.31-2.46,4.97-3.69,1.06-.79,2.13-1.57,3.2-2.35,1.51-1.11,3.03-2.21,4.54-3.32,3.19-2.33,6.39-4.67,9.58-7,.14-.1.27-.21.4-.33.59-.54.85-.54,1.48-.08,1.59,1.18,3.18,2.35,4.77,3.52,2.24,1.65,4.49,3.3,6.74,4.95,1.84,1.35,3.7,2.69,5.54,4.05,1.9,1.39,3.79,2.8,5.7,4.19,2.18,1.59,4.38,3.16,6.56,4.76,1.94,1.43,3.85,2.89,5.79,4.32,1.91,1.41,3.85,2.78,5.76,4.18,1.93,1.41,3.84,2.84,5.77,4.26,2.33,1.72,4.65,3.43,6.98,5.14,1.87,1.37,3.77,2.71,5.64,4.08,1.84,1.35,3.67,2.73,5.51,4.08,2.53,1.85,5.07,3.68,7.59,5.53.13.1.19.29.29.44-.19.06-.37.17-.56.17-2.21,0-4.41-.01-6.62-.01-3.17,0-6.34,0-9.51,0-.84,0-.91.08-.91.92,0,10.79,0,21.57,0,32.36h0ZM18.14,47.81c.32.11.49.16.66.23.72.31,1.5.55,2.15.97,1.3.84,2.18,2.06,2.51,3.59.15.68.13,1.4.14,2.11,0,15.42,0,30.84,0,46.26,0,4.27,0,8.55,0,12.82,0,.69.09.77.78.77.76,0,1.52-.01,2.27-.01,15.13,0,30.26,0,45.38,0,16.64,0,33.29,0,49.93,0,.84,0,.9-.07.9-.92,0-18.78,0-37.56,0-56.34,0-1.34.04-2.68.09-4.02.08-2.19,2.06-4.49,4.09-5.02.39-.1.76-.25,1.28-.42-.44-.35-.75-.61-1.08-.84-1.57-1.15-3.14-2.28-4.71-3.43-1.33-.97-2.64-1.97-3.97-2.95-1.44-1.06-2.9-2.1-4.34-3.15-1.26-.92-2.52-1.86-3.78-2.78-1.76-1.29-3.53-2.57-5.29-3.86-.86-.63-1.7-1.29-2.56-1.92-1.62-1.19-3.26-2.36-4.88-3.56-1.44-1.06-2.86-2.15-4.31-3.2-1.3-.95-2.64-1.87-3.94-2.82-1.29-.94-2.57-1.9-3.86-2.85-1.19-.88-2.38-1.75-3.57-2.63-1.15-.85-2.28-1.71-3.43-2.55-1.63-1.19-3.27-2.34-4.89-3.54-.37-.28-.63-.3-1-.01-.95.74-1.91,1.46-2.88,2.18-1.58,1.16-3.17,2.31-4.75,3.47-1.4,1.03-2.79,2.07-4.19,3.1-1.28.93-2.57,1.85-3.85,2.78-1.1.8-2.18,1.63-3.27,2.43-2.14,1.56-4.29,3.11-6.43,4.68-1.64,1.2-3.25,2.43-4.89,3.62-1.98,1.45-3.98,2.88-5.96,4.34-3.11,2.28-6.21,4.57-9.31,6.84-1,.73-2.02,1.43-3.01,2.17-1.33.98-2.64,1.98-3.96,2.97-.64.48-1.3.94-2.09,1.5Z"></path><path d="m103.94,98.76c.12,3.92-2.62,6.44-5.23,7.41-.62.23-1.31.34-1.97.34-2.77.01-5.54.02-8.3.02h-.48c-2.67,0-5.35,0-8.02,0-.21,0-.38,0-.53,0h-10.44s-.08-.01-.13-.01c-7.46.01-14.92.02-22.38,0-3.26-.01-5.5-1.7-6.99-4.49-.43-.8-.58-1.68-.58-2.59,0-6.17-.02-12.34.02-18.51,0-.88.3-1.76.47-2.64.07-.34.14-.68.25-1,.1-.27.23-.72.39-.75.51-.08,1.05,0,1.57.06.06,0,.14.36.1.54-.19.91-.44,1.81-.63,2.72-.09.43-.17.88-.17,1.32,0,5.94-.02,11.89.01,17.83,0,1.36.46,2.66,1.3,3.75.68.88,1.66,1.41,2.76,1.57.93.13,1.88.18,2.83.18,6.15.01,12.3,0,18.45,0,.76,0,1.51-.03,2.27-.04.01,0,.02,0,.03,0h12.2s.1.04.15.04c.55.02,1.1,0,1.65,0,4.39,0,8.79.01,13.18,0,.72,0,1.45-.08,2.15-.2.91-.16,1.74-.52,2.4-1.21,1.1-1.14,1.57-2.56,1.58-4.09.03-9.99.01-19.98.01-29.98h0c0-5.17,0-10.34,0-15.51,0-4.84.02-9.68-.04-14.52,0-.84-.24-1.71-.56-2.49-.83-2.04-2.6-2.82-4.63-2.88-3.46-.1-6.92-.03-10.39-.04-.03,0-.05,0-.07,0h-21.09c-2.99,0-5.97,0-8.96,0-1.36,0-2.63.4-3.71,1.23-.81.62-1.31,1.52-1.48,2.54-.13.78-.23,1.57-.23,2.35-.02,3.36.01,6.72-.02,10.08-.01,1.13-.19,2.24-1.15,3.04-.29.24-.12.44.09.64,1.07,1.03,2.13,2.06,3.18,3.09.58.57.58.66.26,1.39-.23.52-.48,1.03-.64,1.57-.06.21.03.56.18.72.43.44.94.81,1.41,1.21.27.23.48.18.69-.1.28-.37.58-.73.89-1.07.33-.37.52-.29.91,0,.79.59.76,1.27.44,2.1-.23.6-.31,1.27-.49,1.89-.1.36,0,.63.25.88,1.11,1.1,2.22,2.21,3.33,3.31,1.05,1.05,2.09,2.1,3.13,3.15,1.53,1.54,3.04,3.09,4.6,4.6.25.24.7.29,1.07.37.21.04.44-.05.66-.06.74-.04.87.07,1.17.74.38.83.79,1.64,1.22,2.45.26.48.22.88-.17,1.26-.41.4-.77.84-1.21,1.2-.19.16-.56.28-.76.2-.87-.36-1.71-.8-2.57-1.21-.37-.18-.63-.46-.59-.89.11-1.18-.53-1.93-1.34-2.67-2.64-2.42-5.23-4.89-7.84-7.34-.96-.91-1.92-1.83-2.88-2.74-.34-.32-.68-.4-1.12-.17-.75.39-1.51.75-2.29,1.07-.18.08-.51.05-.66-.06-.91-.72-1.44-.87-.17-1.88.28-.22.52-.51.79-.75.23-.21.23-.39,0-.6-.51-.46-1.02-.92-1.53-1.39-.28-.26-.54-.3-.88-.08-.42.27-.88.47-1.29.75-.41.28-.71.22-1.04-.11-1.19-1.17-2.41-2.31-3.61-3.47-.22-.22-.44-.36-.61-.01-.59,1.22-1.22,2.43-1.3,3.83-.09,1.43.42,2.63,1.41,3.58,1.31,1.27,2.7,2.45,4.06,3.67.35.31.7.61,1.02.94.26.27.52.33.81.08.35-.3.69-.61,1.03-.93.48-.45.7-.42,1,.18.4.8.85,1.58,1.18,2.41.4,1.01,1.17,1.62,2.06,2.14,2.46,1.45,4.92,2.91,7.37,4.37.5.3,1,.61,1.47.95.43.3.42.57.03.91-1.05.94-1.03.92-.07,1.96,1.26,1.36,2.49,2.76,3.75,4.13.29.32.29.59-.03.88-.25.23-.49.48-.73.73-.3.32-.57.31-.87-.02-1.41-1.58-2.85-3.14-4.25-4.72-.31-.35-.53-.35-.84-.03-.65.68-1.31,1.36-1.99,2.02-.29.29-.18.51.04.76.7.8,1.4,1.61,2.1,2.41.67.76,1.34,1.53,2.01,2.29.35.41.33.62-.08.99-.23.21-.45.43-.66.65-.28.29-.54.32-.83,0-1.42-1.59-2.86-3.17-4.28-4.76-.31-.35-.58-.4-.9-.06-.12.12-.25.24-.36.37-.44.49-.84.46-1.11-.14-.74-1.65-1.48-3.3-2.2-4.96-.81-1.86-1.59-3.74-2.43-5.59-.16-.36-.54-.66-.87-.9-.93-.68-1.89-1.32-2.85-1.97-.39-.26-.44-.46-.11-.81.27-.29.57-.55.85-.83.49-.5.48-.83-.02-1.31-1.7-1.64-3.4-3.26-5.08-4.92-1.9-1.88-2.27-4.14-1.52-6.62.3-1,.69-1.98,1.07-2.96.27-.68.22-1.18-.37-1.73-2.44-2.31-4.83-4.67-7.21-7.03-.19-.19-.3-.61-.23-.86.43-1.45.92-2.89,1.43-4.31.1-.28.36-.57.62-.7,1.34-.63,2.7-1.2,4.05-1.8.34-.15.63-.08.89.18,2.02,1.98,4.03,3.95,6.05,5.92.5.49,1.03.96,1.54,1.46.33.32.7.44,1.13.25.41-.18.66-.5.66-.96.01-1.15.03-2.31.03-3.46,0-2.57-.04-5.14,0-7.7.05-2.96,1.32-5.23,4.03-6.58.86-.43,1.79-.69,2.78-.69,5.6,0,11.2,0,16.8,0,.29,0,.51,0,.68-.02h13.99c.08,0,.16.02.27.02,3.02,0,6.03,0,9.05,0,.5,0,1,.03,1.49.11,3,.5,4.88,2.34,5.86,5.12.29.82.23,1.76.29,2.65.04.72.02,1.45.02,2.17,0,16.18,0,32.36,0,48.54,0,2.88-.07,5.76.02,8.63Z"></path><path class="cls-2" d="m79.74,24.12h10.69c.2,0,.35.2.28.39l-11.53,33.58c-.07.2.09.4.3.39l18.35-1.02c.22-.01.37.21.29.41l-16.62,40.06c-.08.19.05.4.26.41l4.16.25c.24.01.37.3.21.49l-11.22,13.56c-.16.2-.48.11-.52-.14l-2.77-17c-.04-.23.2-.41.41-.32l5.07,2.25c.16.07.35-.01.4-.18l9.41-29.53c.07-.21-.11-.42-.33-.38l-16.99,2.48c-.21.03-.38-.16-.33-.36l10.17-45.08c.03-.14.15-.23.29-.23Z"></path><path class="cls-1" d="m77.29,22.34h10.69c.2,0,.35.2.28.39l-11.53,33.58c-.07.2.09.4.3.39l18.35-1.02c.22-.01.37.21.29.41l-16.62,40.06c-.08.19.05.4.26.41l4.16.25c.24.01.37.3.21.49l-11.22,13.56c-.16.2-.48.11-.52-.14l-2.77-17c-.04-.23.2-.41.41-.32l5.07,2.25c.16.07.35-.01.4-.18l9.41-29.53c.07-.21-.11-.42-.33-.38l-16.99,2.48c-.21.03-.38-.16-.33-.36l10.17-45.08c.03-.14.15-.23.29-.23Z"></path></g></g></g></svg>