<svg xmlns="http://www.w3.org/2000/svg" id="b" data-name="Ebene 2" viewBox="0 0 212.1 211.91"><defs><style>      .d {        fill: #fff;      }    </style></defs><g id="c" data-name="Ebene 1"><g><path class="d" d="m107.05,20.47c12.35,2.64,24.7,5.29,37.05,7.93-1.63,6.71-3.26,13.43-4.88,20.14-2.48-.56-4.95-1.12-7.43-1.68-8.25-8.8-16.49-17.6-24.74-26.39"></path><path class="d" d="m163.03,120.58c-14.79-6.4-24.41-15.64-29.56-21.42,2.67,7.42,10.22,25.27,28.85,39.29,14.85,11.18,29.77,14.68,37.52,15.93,2.12-3.68,4.4-8.23,6.37-13.63,1.94-5.32,3.14-10.2,3.89-14.33-7.99,1.25-26.54,3.04-47.08-5.84"></path><path class="d" d="m202.59,62.53c.75,3.52,1.48,9.06.44,15.66-.62,3.92-1.9,12.07-7.88,18.58-9.62,10.49-24.59,9.32-26.81,9.12,7.06,2.7,19.37,6.12,33.8,3.36,3.68-.7,6.99-1.71,9.91-2.83.18-5.82-.13-13.4-1.95-22.04-1.91-9.08-4.88-16.46-7.52-21.86"></path><path class="d" d="m10.46,151.38c1.66,4.18,4.08,9.21,7.61,14.51,4.43,6.65,9.2,11.58,13.1,15.04.32-14.14,2.93-43.88,21.59-74.87,14.77-24.52,33.23-39.27,44.43-46.9-10.57,2.48-25.16,7.43-39.82,17.88-35.17,25.05-44.56,63.06-46.9,74.33"></path><path class="d" d="m67.1,122.35c-10.64,23.77-12.4,44.68-12.74,54.51-.31,8.88.25,16.36.88,21.77,3.71,2.28,8.46,4.78,14.22,6.9,5.55,2.05,10.62,3.21,14.81,3.9-3.42-9.84-6.37-21.55-7.61-34.87-4.44-47.55,15.69-84.88,26.02-101.24-9.59,8.71-24.7,24.71-35.58,49.03"></path><path class="d" d="m112.05,84.48c-5.85,11.13-14.1,30.37-15.93,55.58-2.45,33.78,7.99,59.77,13.81,71.86,4.54-.1,9.85-.54,15.69-1.65,4.52-.86,8.56-1.96,12.1-3.13-8.98-11.27-28.25-38.74-30.62-77.88-1.11-18.31,1.81-33.74,4.95-44.78"></path><path class="d" d="m124.68,135.45c7.42,32.29,26.66,52.76,35.69,61.24,2.6-1.68,5.26-3.51,7.96-5.49,5.58-4.08,10.52-8.21,14.87-12.21-11.97-6.71-37.89-23.57-52.15-55.81-4.71-10.65-7.14-20.69-8.38-29.14-1.29,10.18-1.83,24.72,2.01,41.42"></path><path class="d" d="m191.54,57.16c-2.62-4.98-7.05-7.51-15.82-12.6-5.57-3.24-10.66-5.44-14.62-6.92.48-2.7,1.09-8.49-1.61-14.76-2.14-4.98-5.36-7.93-7.61-9.91-2.71-2.38-6.96-5.42-15.4-8.32-6.76-2.11-14.66-3.83-23.54-4.43C70.58-2.61,40.55,22.06,40.55,22.06c-6.35,4.23-16.07,14.47-24.4,28.79C11.86,58.22.56,77.39.02,104.12c-.19,9.12.92,16.65,1.95,21.77.92-4.43,2.57-10.87,5.66-18.23,14.7-35.01,45.32-51.18,53.63-55.22,7.33-3.57,18.69-8.09,33.63-10.26-7.22-2.39-18.28-5.07-31.86-4.6-9.45.33-17.4,2.08-23.36,3.9,2.31-2.83,27.5-33.13,53.85-36.64,8.54-1.14,18.67-.44,18.67-.44,4.32.3,13.62,1.23,24.47,5.04,5.65,1.98,8.77,3.72,11.5,5.84,1.79,1.39,5.09,4.11,7.52,8.85,2.56,4.97,2.87,9.71,2.78,12.58-.01,0-.03,0-.04-.01-2.06,8.73-4.13,17.46-6.19,26.2,11.56,5.34,20.28,9.48,24.78,11.5.99.44,3.2,1.43,4.95,3.72,1.55,2.02,2.09,4.2,2.3,5.66l-.02.18c-6.66-1.6-13.38-3.25-20.16-4.95-5.04-1.27-10.03-2.56-14.99-3.85-.37,1.43-.75,2.86-1.12,4.29,4.77,1.11,9.61,2.21,14.51,3.27,7.22,1.57,14.34,3.03,21.35,4.39l-.29,2.33c.77.24,1.53.47,2.3.71.97-1.11,2.28-2.77,3.54-4.95,4.13-7.19,6.96-18.86,2.14-28.02"></path></g></g></svg>