<svg xmlns="http://www.w3.org/2000/svg" xmlns:xlink="http://www.w3.org/1999/xlink" id="b" data-name="Ebene 2" viewBox="0 0 738.89 673.69"><defs><style>      .e {        fill: url(#d);      }    </style><linearGradient id="d" data-name="Unbenannter Verlauf 10" x1="369.45" y1="673.69" x2="369.45" y2="0" gradientUnits="userSpaceOnUse"><stop offset="0" stop-color="#642480"></stop><stop offset="1" stop-color="#ac00e0"></stop></linearGradient></defs><g id="c" data-name="Ebene 1"><path class="e" d="m738.89,336.09c-.52,33.76-7.15,67.04-19.78,99.16-15.83,40.27-38.28,76.42-66.83,108.88-34.76,39.52-75.43,71.33-122.97,94.01-33.16,15.82-68.14,25.69-104.48,31.2-19.83,3.01-39.79,4.47-59.69,4.33-38.25-.28-76.03-5.17-112.91-15.91-24.86-7.24-49.02-16.28-72.09-28.05-38.07-19.42-71.97-44.53-100.5-76.38-39.35-43.94-63.55-95.32-73.1-153.55-3.59-21.87-5.51-43.87-6.25-66.06-1.69-50.44,4.04-100.02,15.55-149.04,7.3-31.09,17.33-61.26,31.52-89.89,14.78-29.82,32.76-57.36,60.64-76.88C135.21-1.15,164.52-5.05,195.82,6.45c9.12,3.35,17.63,7.89,26.08,12.57,43.55,24.11,90.01,40.88,137.62,54.8,48.79,14.27,98.41,25.28,147.66,37.74,35.06,8.87,69.97,18.3,103.48,32.15,26.8,11.07,52.31,24.41,72.79,45.53,17.88,18.44,30.4,40.38,39.84,64.11,10.47,26.3,15.26,53.73,15.6,82.74Z"></path></g></svg>